<svg width="20" height="20" viewBox="0 0 20 20" fill="none" xmlns="http://www.w3.org/2000/svg">
<path d="M13.1021 13.9123C11.9806 14.8513 10.5355 15.4167 8.95833 15.4167C5.39149 15.4167 2.5 12.5252 2.5 8.95833C2.5 5.39149 5.39149 2.5 8.95833 2.5C12.5252 2.5 15.4167 5.39149 15.4167 8.95833C15.4167 10.5355 14.8513 11.9806 13.9123 13.1021L17.4884 16.6782L16.6782 17.4884L13.1021 13.9123ZM14.2708 8.95833C14.2708 6.02432 11.8923 3.64583 8.95833 3.64583C6.02432 3.64583 3.64583 6.02432 3.64583 8.95833C3.64583 11.8923 6.02432 14.2708 8.95833 14.2708C11.8923 14.2708 14.2708 11.8923 14.2708 8.95833Z" fill="white"/>
</svg>
