<svg xmlns="http://www.w3.org/2000/svg" xmlns:xlink="http://www.w3.org/1999/xlink" width="152.798" height="9.553" viewBox="0 0 152.798 9.553">
  <defs>
    <clipPath id="clip-path">
      <rect id="Rectangle_57824" data-name="Rectangle 57824" width="152.798" height="9.553" fill="#ee408a"/>
    </clipPath>
  </defs>
  <g id="Group_26937" data-name="Group 26937" transform="translate(0 0)">
    <g id="Group_26014" data-name="Group 26014" transform="translate(0 0)" clip-path="url(#clip-path)">
      <path id="Path_321593" data-name="Path 321593" d="M286.626,4.01c.083-.039.043-.14-.18-.129l-.167.159Z" transform="translate(-133.868 -1.94)" fill="#ee408a"/>
      <path id="Path_321594" data-name="Path 321594" d="M283.757,3.4c-.266.07-.574.2-.414.357.268-.148.326-.08.615-.257.224-.01.385.069.344.129.081-.039.343.051.468-.048a1.557,1.557,0,0,0-1.036-.071c-.08-.04,0-.08.022-.11" transform="translate(-132.474 -1.702)" fill="#ee408a"/>
      <path id="Path_321595" data-name="Path 321595" d="M243.387,1.389l.14.023a.667.667,0,0,0-.14-.023" transform="translate(-113.811 -0.695)" fill="#ee408a"/>
      <path id="Path_321596" data-name="Path 321596" d="M218.091.819c.1,0,.145-.02.151-.035-.1.011-.174.021-.151.035" transform="translate(-101.981 -0.392)" fill="#ee408a"/>
      <path id="Path_321597" data-name="Path 321597" d="M213.776.477l.136.012a.237.237,0,0,0-.136-.012" transform="translate(-99.965 -0.236)" fill="#ee408a"/>
      <path id="Path_321598" data-name="Path 321598" d="M243.07,1.33l-.358-.06c-.027.054.183.044.358.06" transform="translate(-113.494 -0.635)" fill="#ee408a"/>
      <path id="Path_321599" data-name="Path 321599" d="M278.5,3.918a.849.849,0,0,0,.2-.036l-.184.01a.1.1,0,0,1-.013.026" transform="translate(-130.229 -1.941)" fill="#ee408a"/>
      <path id="Path_321600" data-name="Path 321600" d="M254.545,1.3l.109,0a.552.552,0,0,0,.093-.066Z" transform="translate(-119.029 -0.62)" fill="#ee408a"/>
      <path id="Path_321601" data-name="Path 321601" d="M262.937,1.638c-.1-.011-.144.129-.186.189a.364.364,0,0,1,.228-.087.149.149,0,0,0-.043-.1" transform="translate(-122.866 -0.819)" fill="#ee408a"/>
      <path id="Path_321602" data-name="Path 321602" d="M276.638,2.717l.129-.014-.129.014" transform="translate(-129.36 -1.352)" fill="#ee408a"/>
      <path id="Path_321603" data-name="Path 321603" d="M248.386,1.119a.1.1,0,0,0-.04-.051c0,.018.015.035.04.051" transform="translate(-116.13 -0.534)" fill="#ee408a"/>
      <path id="Path_321604" data-name="Path 321604" d="M10.064,17.76c0-.01,0-.016,0-.024-.023.018-.03.029,0,.024" transform="translate(-4.695 -8.868)" fill="#ee408a"/>
      <path id="Path_321605" data-name="Path 321605" d="M.084,17.986l.07-.02a.252.252,0,0,0,0-.08Z" transform="translate(-0.039 -8.943)" fill="#ee408a"/>
      <path id="Path_321606" data-name="Path 321606" d="M205.867.1l.019,0c.111-.016.048-.013-.019,0" transform="translate(-96.266 -0.048)" fill="#ee408a"/>
      <path id="Path_321607" data-name="Path 321607" d="M133.092,2.524c.445.1-.7.2-.035.3-.065-.052.585-.249.035-.3" transform="translate(-62.119 -1.262)" fill="#ee408a"/>
      <path id="Path_321608" data-name="Path 321608" d="M278.114,3.9l-.186-.007a1.019,1.019,0,0,0,.186.007" transform="translate(-129.963 -1.947)" fill="#ee408a"/>
      <path id="Path_321609" data-name="Path 321609" d="M133.245,3.13h0l.069.01-.069-.011" transform="translate(-62.307 -1.565)" fill="#ee408a"/>
      <path id="Path_321610" data-name="Path 321610" d="M187.647.5a.273.273,0,0,0,.1.06c0-.015-.026-.032-.1-.06" transform="translate(-87.746 -0.25)" fill="#ee408a"/>
      <path id="Path_321611" data-name="Path 321611" d="M201.066.656l-.179-.019a1.153,1.153,0,0,0,.179.019" transform="translate(-93.937 -0.319)" fill="#ee408a"/>
      <path id="Path_321612" data-name="Path 321612" d="M180.378,1.008A.745.745,0,0,0,180.115,1a.171.171,0,0,0,.04.016.375.375,0,0,1,.223-.01" transform="translate(-84.224 -0.496)" fill="#ee408a"/>
      <path id="Path_321613" data-name="Path 321613" d="M173.276,1.164c.021.01.048.017.073.026l.124-.011Z" transform="translate(-81.026 -0.582)" fill="#ee408a"/>
      <path id="Path_321614" data-name="Path 321614" d="M31.765,14.281a.584.584,0,0,1-.2-.1c.074.091-.488.2.2.1" transform="translate(-14.693 -7.09)" fill="#ee408a"/>
      <path id="Path_321615" data-name="Path 321615" d="M278.4,3.8a.142.142,0,0,1-.118.056l.129,0c.013-.02.016-.04-.011-.054" transform="translate(-130.127 -1.898)" fill="#ee408a"/>
      <path id="Path_321616" data-name="Path 321616" d="M179.817,3.237l-.62-.01c.174.01.4.014.62.01" transform="translate(-83.795 -1.614)" fill="#ee408a"/>
      <path id="Path_321617" data-name="Path 321617" d="M84.136,8.43,84,8.458a.318.318,0,0,0,.14-.028" transform="translate(-39.278 -4.215)" fill="#ee408a"/>
      <path id="Path_321618" data-name="Path 321618" d="M175.375,3.24a1.361,1.361,0,0,0-.351-.091.248.248,0,0,0-.071.038Z" transform="translate(-81.81 -1.575)" fill="#ee408a"/>
      <path id="Path_321619" data-name="Path 321619" d="M31.695,14.177l0,0Z" transform="translate(-14.821 -7.089)" fill="#ee408a"/>
      <path id="Path_321620" data-name="Path 321620" d="M12.884,7.952c.585-.073.247-.216.355-.337.69-.144.343.092.6.155.428-.106.737-.318,1.063-.354.029.027.094.03.025.078.439-.207,1.366-.188,1.876-.441a.164.164,0,0,1,.077.036.271.271,0,0,1-.119-.24c.262-.038.47-.18.586-.074-.161.018-.167.068-.237.115L17.37,6.8c.272.14-.366.109-.348.236a8.327,8.327,0,0,1,1.549-.351c.11.157-.953.174-.383.256l-.644.018c.523.2-.388.033.1.258.841-.063.923-.2,1.764-.255.175-.116-.081-.131.093-.247,1.163-.311.993.312,1.834-.017a.987.987,0,0,1,.906-.325l-.186.216c.812-.078.425-.329,1.291-.3-.141.093-.628.14-.5.148.57.085.374-.155.8-.206l.11.159c.859-.128,1.792-.372,2.746-.5-.046.056-.2.127.027.154a25.312,25.312,0,0,1,3.754-.282l.427-.194c.1-.01.2.045.092.086.46.006.012-.1.224-.176.257-.038.351.047.192.109a11.626,11.626,0,0,1,3.111-.446l-.159.06c.664-.005.708-.37,1.334-.292l-.114.037a33.122,33.122,0,0,1,4.111-.237c.185-.23,1.423-.04,1.484-.342a9.9,9.9,0,0,0,1.761.132c.308-.016.438-.227.815-.293l.024.153.5-.209.292.162.352-.068c-.143,0-.308-.045-.291-.091a2.743,2.743,0,0,1,1.387.075l1.3-.236c-.023.064-.242.1-.412.157.687-.213.143.152.772-.044-.089-.028.038-.1.05-.128a6.052,6.052,0,0,0,1.6-.074l-.094.114c.978-.052,2.052-.217,3.147-.3-.4-.018-.323-.209,0-.252l.143.152c.2-.118-.341-.035.075-.192.41-.015.291.163.061.234l.492-.1c.034.046-.081.081-.106.145.2-.118.872.094,1.152-.105l.032.046L56.5,3.41c.006-.142.358-.133.615-.264.66,0,1.4.064,2.187,0,.55-.107.153-.13.4-.23.051.125.84.061.437.18.948-.084,1.21-.106,2.4-.289-.134-.044-.283-.057-.21-.106.217-.036.5.021.473.085l-.056.017c1.335-.278,3.134.16,4.19-.163l-.059.016,1.1-.2c.514,0-.3.112.083.172,1.188-.275,1.9-.066,2.88-.258.788.339,2.716-.164,3.763.025l-.064-.086c.262-.1.326.035.523.045-.031-.068-.294-.065-.13-.122,1.129-.111,2.3-.138,3.475-.141l3.527.047c.85-.005.462-.477,1.542-.3l-.3.176c1.706-.257,3.5-.114,5.175-.339-.1.042-.1.092-.264.1a2.369,2.369,0,0,0,1.313-.138c.262,0,.064.087.226.131.358.059.887-.184,1.08-.071.033.018-.1.042-.163.054.23-.066,1.08-.022.853-.153.632.041,1.2-.1,1.708-.024.323-.161,1.08.056,1.179-.165-.039.227,1.109.164,1.505.051-.132.071.348.065.194.162.455-.011.87-.06.788-.175.843.256,1.679-.247,2.158.092,1.347-.145,2.6-.248,3.81-.322-.04.226-1.343.045-1.287.281a20.139,20.139,0,0,1,2.956-.283c.3.026-.167.1-.266.141,1.15-.11,2.226-.028,3.25-.141,0,.021-.113.044-.217.061.2-.007.47.034.446-.069l-.2.028c-.324-.15.8-.31.835-.389-.341.294,1.013.075.471.446.133-.019.3-.068.268-.136.2.02.26.061.061.138.723-.055.465-.164,1.121-.161,0,.05-.134.069-.2.127a3.017,3.017,0,0,1,1.219-.15c-.034.03.031.069-.134.068a20.777,20.777,0,0,1,2.665-.161c-.308.215.355.072.409.258l.562-.055-.225-.091a11.285,11.285,0,0,1,1.349-.07l-.366.077.921-.034-.521-.072c.5-.1-.053-.237.6-.184a5.054,5.054,0,0,1,.748.113h0a2.143,2.143,0,0,1,.858-.075c.094.06-.077.207-.016.246.241-.156,1.152-.042,1.457-.208-.1.039-.108.137-.075.157l.2-.127c.228.041.261.061.223.139.685.024-.215-.237.6-.134-.064.01-.034.03-.167.049.816.048,1.579-.068,2.328.011.219.193-.656.033-.4.2,1.082-.012,2.243-.179,3.289-.113l-.194-.025c.15-.262.777.148,1.309.034-.13.016-.173.144-.137.115a20.613,20.613,0,0,0,2.555-.1L129,1.2c.421.07,1.112.059,1.567.1.137-.065.4-.049.242-.151,1.4.417,2.69-.152,3.929.2-.15,0-.358.053-.239.055l1.065-.041c-.08-.118-.137-.073-.358-.168a1.875,1.875,0,0,1,.7-.107c-.481.067,0,.186.2.254-.034-.036.038-.074.022-.11.548.219.1-.234.854-.072l-.042.059a4.822,4.822,0,0,1,.854-.059c.122.139-.3.05-.328.159.43.01.857-.218,1.241-.069-.184.03-.446.02-.63.049a1.925,1.925,0,0,0,.782.175l-.031,0,.725.1-.184-.05c.552-.326,1.1-.019,1.831-.217-.713.187-.121.12-.182.269.183.05.462.109.38.148.347-.108.567.12,1.058-.039.019.05.366.02.283.139.447-.02-.1-.09-.061-.149.693-.138,1.6.269,2.6.082.855-.059,1.021-.217,1.815-.266.262.089-.227.169-.227.169a3.536,3.536,0,0,0,1.158.051c-.085.039,0,.079.119.138.326,0,.227-.168.652-.079a1.123,1.123,0,0,1-.335.182c.385-.029.769-.1,1.168-.132.1.089-.246.119-.389.169a3.914,3.914,0,0,0,1.3-.158l-.283-.06c.163,0,.077.119-.044.139-.388.09-.548-.07-.567-.12l.284-.02c-.275-.3-1.137,0-1.7-.041l.248-.2-.593.148c-.121-.059-.2-.179.083-.2-.4-.12-.365.059-.709-.07-.038-.02-.02-.029.017-.036l-.4.046c.08-.041-.059-.15.184-.11-.709-.15-1.161.108-1.423-.061l.061-.011c-1,.03-.1.149-.856.3l-.483-.4-.1.149c-.1-.01-.3-.03-.264-.089-.386.089.062.069-.164.159-.487-.16-1.361.008-1.462-.239-.182.109.467.109-.062.168-.138-.268-.61.02-1.055-.119.144-.129.568-.04.122-.179-.281.217-.875-.086-1.256-.059-.025.181-.829.042-1.468.076.043-.06-1.2-.15-1.786-.24l.019-.03c-.121.178-.732.133-1.179.161.021-.11.1-.151.346-.2l-.419-.008a1.146,1.146,0,0,1-.5.1l.11-.135a10.742,10.742,0,0,1-1.843.032c-.044.128.56.369-.2.438-.026-.07-.051-.189.149-.213a1,1,0,0,1-.364.021l.306-.11c-.325-.058-.174.094-.434.078.008-.1-.191-.075-.152-.152.067-.008.227.046.328.009a2.219,2.219,0,0,1-.764-.167c.024.057,0,.133-.22.141-.557,0-.187-.123-.511-.18-.137.066-.491-.013-.5.135a.343.343,0,0,1-.253-.115c-.291.059-1.349-.009-1.028.155l.074.012-.047.006h0c-.949.128-1.962-.124-2.9-.08l0-.05a14.267,14.267,0,0,0-1.649.106c-.166,0-.39-.1-.318-.156A3.284,3.284,0,0,1,123.8.546c.432-.077-.147-.079.442-.054a3.117,3.117,0,0,0-1.28-.013c.2-.122-.417-.168-.682-.136l.389.1a7.673,7.673,0,0,1-.821-.021L122,.258c-1.137-.229-2.058.335-2.922-.011-.3.116.618.083.347.219A9.524,9.524,0,0,1,118.191.2c-.718-.093-.672.242-1.423.178.1.06.186.218-.376.273-.524-.023-.643-.25-.312-.3.126-.005.186.014.181.034.17-.022.392-.047.185-.111l-.068.059c-.26-.061-.982-.056-.812-.153-.4.056-.17.1.124.129-.672-.087-1.05,0-1.743-.063.11.033.211.1.1.1-1.015-.075-.447.112-1.135.137-.391-.091.14-.216-.553-.141-.423-.062-.09-.158.078-.206a5.171,5.171,0,0,1-1.54-.1L111.232,0a3.47,3.47,0,0,1-.528.027l.19.119c-.2-.021-.36-.022-.357-.071-.2.078.155.2-.244.3-.26-.061-.792.064-.883-.094.819.055-.091-.159.6-.183a2.033,2.033,0,0,1-.492,0c-.029-.018.028-.033.081-.042-.784-.142-.359.178-1.171.173.1-.089-.19-.169-.322-.15.327,0,.158.148-.142.216a3.05,3.05,0,0,0-.837.043l.311.033c-.1.089-.365.077-.727.1-.031-.069.329-.047.2-.078-.4.151-.911-.152-1.472-.039-.261-.056-.027-.167-.256-.2-.628.126-.683-.11-1.344,0,.193.116.225.087-.239.211l1.087-.1-.7.186c.328,0,.692-.087.889-.07-.332.1-.3.073-.139.169-.451-.171-.889.12-1.409.008l.012-.3c-.783-.119-1.385.176-2.4.119l.326.046c-.134.12-.625.027-.952.08.029-.1-.177-.132-.318-.191.019.073-.742.006-.83.2L98.716.392c-.82-.04-.928.3-1.715.277.234-.112-.125-.175.4-.261-.262,0-.5-.011-.5.058-.155-.059-.725.146-.969.056a.656.656,0,0,1-.438.147c-.032-.02,0-.049,0-.049,0,.049-.459.074-.2.179C94.477.5,93.034.858,92.323.608c-.572.053-1.261.108-1.78.133.032-.031,0-.049.1-.042-.72-.068-.432.3-1.251.224-.422-.146.431-.1.169-.153-.124-.321-.983.078-1.539-.093l.132-.024a13.454,13.454,0,0,0-1.706.159s.032-.03,0-.05a9.563,9.563,0,0,1-2.007.336c.2-.134.3-.078.167-.2-.295.029.095.2-.494.261-.194-.063-.623-.109-.685-.245l.556-.027c-.292-.169-.72.031-1.015.01L83,.816c-.852.055-.856.251-1.773.269l.1.056c-.492.212-.425-.1-.918.067l-.161-.192c-.328.063-1.15.223-1.74.3A8.476,8.476,0,0,1,79.953.945a4.648,4.648,0,0,0-1.28.161,1.206,1.206,0,0,1,.427-.057,4.493,4.493,0,0,1-1.572.306c.1-.388-1.706-.011-2.2-.283-1.148.2-2.3.056-3.64.147.495.273-.392.028-.292.329a1.31,1.31,0,0,1-.461.018l-.961-.134c-.231-.078.294-.083.261-.15-.688.012-.3-.115-.755-.173.1.1-.229.169-.623.147l.56.113c-.949.211-.845-.214-1.8,0l.3-.112a8.941,8.941,0,0,0-2.3.372c-.09-.03-.212-.105,0-.142-1.187.042-2.618.435-3.549.345l.084-.081c-.219.036-.374.166-.656.109.012-.032.084-.081-.019-.078a2.965,2.965,0,0,1-.874.145l.244-.1a15.29,15.29,0,0,0-2.723.437c-.014-.22-.93-.231-1.386-.237l.013-.032a28.521,28.521,0,0,0-3.508.522,37.361,37.361,0,0,0-3.878.078c.193.025-.015.174-.234.214-.3-.021-.791.217-.763.012l.1,0c-.238-.18-.832-.079-1.3-.047l-.052.269c-1.259-.28-3.191.39-3.89.119-.288.094-.653.127-.939.221l0-.143c-.82.041-1.23.062-2.236.191l.2-.121c-.571.045-.676.474-1.2.532l-.18-.2a15.858,15.858,0,0,0-2.979.291c.013-.033.035-.1.2-.12-.469.039-1.825.029-1.622.3-.034-.191-1.026.087-1.552.228l.067-.148a2.551,2.551,0,0,1-1.065.393c-.152,0-.144-.1.059-.083-.507-.019-.373.173-.986.164l.215-.113a1.25,1.25,0,0,0-.737.221A1.756,1.756,0,0,1,29.4,4.725a.909.909,0,0,1-.635.212c-.047-.043.06-.084.113-.1-.869,0-1.255.3-1.861.226a.129.129,0,0,0-.11-.072c.681-.07,1.231-.122,1.181-.106-.016-.128-.569-.091-.153-.315a6.092,6.092,0,0,1-1.7.432.248.248,0,0,1-.077-.036l.054-.021A1.1,1.1,0,0,0,25.877,5a3.508,3.508,0,0,0-.449.01c-.077-.1-.638.019-.913.047.041.137-.32.158.031.233-.045-.005.05-.023.231-.051a.841.841,0,0,0,.115-.028l-.017.014.68-.091a1.246,1.246,0,0,1-.738.142c-.129.107-.272.217-.353.271-.4-.15-1.137-.168-1.254-.276a9.5,9.5,0,0,0-2.454.613c-.233.063-.284-.042-.379-.073a2.272,2.272,0,0,0,.367-.105c-.466.124-1.406.2-1.493.392-.611-.011.313-.209-.506-.08l.1-.069c-1.663-.1-2.562.808-4.411.665.128.007.192.009.221.036-2.071.1-4.186.718-6.241.751a1.891,1.891,0,0,0-.959.294L7.31,7.561l-.569.258c-.824.255-1.527-.141-2.557.262l.156.079c-.388.04-1.207.247-1.164.122a.3.3,0,0,1-.267.1L2.883,8.3l-.918.289c-.742.064.057-.328-1.014-.168-.392.1-1.088.421-.927.446.161-.023.419-.022.446.054l-.354.1c-.02.241-.246.522.665.53l.59-.243.22.079-.519.092a.95.95,0,0,0,.682-.165.445.445,0,0,0,.282.081L2.6,9.077c.089.078-.24.223.177.206.266-.149-.31-.157.149-.3.315.056.244.156.576.012.06.051-.007.1-.141.148.3-.119.814-.156.952-.3.332.081,1.04-.195,1.048.027a2.873,2.873,0,0,1,.8-.308c-.475.34,1.068-.149.978.155.346-.29,1.375-.3,2.036-.532a.307.307,0,0,1-.166.069,3.889,3.889,0,0,1,.765.029c.018-.2.61-.331.914-.5.5.119-.25.269-.073.427-.048-.154.794-.274.613-.382.379.064.319.011.53.146.025-.253.33-.086.606-.275.541.051.169.21.732.06.284.038-.213.192-.213.192M26.49,5.84v0l-.282.038.282-.041m1.151-.126c-.141.01-.315.027-.5.049-.046-.044-.009-.1.107-.108-.059.039.216.038.393.06m-2.56-.7c.179-.042.244-.022.273,0l-.317.055-.019.02a.187.187,0,0,1,.063-.079" transform="translate(0 0)" fill="#ee408a"/>
      <path id="Path_321621" data-name="Path 321621" d="M46.474,10.459a.564.564,0,0,1-.074.019c.039.008.076.014.113.019l.059-.052-.1.014" transform="translate(-21.697 -5.223)" fill="#ee408a"/>
      <path id="Path_321622" data-name="Path 321622" d="M243.673,1.438l-.024,0a.152.152,0,0,1,.051.021.147.147,0,0,1-.027-.018" transform="translate(-113.934 -0.717)" fill="#ee408a"/>
      <path id="Path_321623" data-name="Path 321623" d="M81.768,8.751l-.005-.036-.1.041Z" transform="translate(-38.188 -4.358)" fill="#ee408a"/>
      <path id="Path_321624" data-name="Path 321624" d="M255.661,2.67a.168.168,0,0,0,.083.038c0-.009-.039-.023-.083-.038" transform="translate(-119.551 -1.335)" fill="#ee408a"/>
      <path id="Path_321625" data-name="Path 321625" d="M260.835,2.933l.388.066c-.167-.036-.29-.054-.388-.066" transform="translate(-121.97 -1.467)" fill="#ee408a"/>
      <path id="Path_321626" data-name="Path 321626" d="M264.808,3.189a.149.149,0,0,0,.044-.059h0Z" transform="translate(-123.828 -1.565)" fill="#ee408a"/>
      <path id="Path_321627" data-name="Path 321627" d="M201.357,2.557a.708.708,0,0,0-.082.006c-.191.028-.061.016.082-.006" transform="translate(-94.074 -1.279)" fill="#ee408a"/>
      <path id="Path_321628" data-name="Path 321628" d="M220.069,1.925c-.106.026-.212.051-.323.066.179.011.317.014.323-.066" transform="translate(-102.756 -0.963)" fill="#ee408a"/>
      <path id="Path_321629" data-name="Path 321629" d="M180.429,3.247v0h0Z" transform="translate(-84.339 -1.622)" fill="#ee408a"/>
      <path id="Path_321630" data-name="Path 321630" d="M218.871,2.04a1.521,1.521,0,0,0,.466,0,2.382,2.382,0,0,0-.466,0" transform="translate(-102.347 -1.015)" fill="#ee408a"/>
      <path id="Path_321631" data-name="Path 321631" d="M282.043,4.124l.1.01a.024.024,0,0,1,.013-.022Z" transform="translate(-131.887 -2.056)" fill="#ee408a"/>
      <path id="Path_321632" data-name="Path 321632" d="M282.259,4.1l.114-.012a.209.209,0,0,0-.114.012" transform="translate(-131.988 -2.043)" fill="#ee408a"/>
      <path id="Path_321633" data-name="Path 321633" d="M282.714,4.037l-.241.025a.45.45,0,0,0,.241-.025" transform="translate(-132.088 -2.019)" fill="#ee408a"/>
      <path id="Path_321634" data-name="Path 321634" d="M276.754,3.774l-.035.05a.067.067,0,0,0,.035-.05" transform="translate(-129.398 -1.887)" fill="#ee408a"/>
      <path id="Path_321635" data-name="Path 321635" d="M275.182,3.716a4.145,4.145,0,0,0,.79.11l.029-.04c-.137.071-.621-.148-.818-.07" transform="translate(-128.679 -1.85)" fill="#ee408a"/>
      <path id="Path_321636" data-name="Path 321636" d="M268.555,2.046l.713.071c-.122-.06-.284-.14.042-.139-.894-.2.18.129-.755.069" transform="translate(-125.58 -0.956)" fill="#ee408a"/>
      <path id="Path_321637" data-name="Path 321637" d="M264.232,1.729c.385-.01,0-.079.02-.109-.245.04-.305.05-.02.109" transform="translate(-123.47 -0.81)" fill="#ee408a"/>
      <path id="Path_321638" data-name="Path 321638" d="M234.22.883l.041-.127c-.3.012,0,.05-.041.127" transform="translate(-109.481 -0.378)" fill="#ee408a"/>
      <path id="Path_321639" data-name="Path 321639" d="M228.532,2.176l.287.086.138-.115Z" transform="translate(-106.865 -1.074)" fill="#ee408a"/>
      <path id="Path_321640" data-name="Path 321640" d="M224.832.348l.129-.018-.495.046Z" transform="translate(-104.964 -0.165)" fill="#ee408a"/>
      <path id="Path_321641" data-name="Path 321641" d="M174.574.877l.094.156c.2-.032.236-.21-.094-.156" transform="translate(-81.633 -0.434)" fill="#ee408a"/>
      <path id="Path_321642" data-name="Path 321642" d="M152.188,1.908a.919.919,0,0,0-.657-.03c.262,0,.525.055.657.03" transform="translate(-70.858 -0.916)" fill="#ee408a"/>
      <path id="Path_321643" data-name="Path 321643" d="M87.21,5.693l.228-.072L87,5.7Z" transform="translate(-40.684 -2.811)" fill="#ee408a"/>
    </g>
  </g>
</svg>
